<?xml version="1.0" encoding="utf-8"?>
<svg width="1024" height="1024" version="1.1" id="svg18" viewBox="0 0 1024 1024" xmlns="http://www.w3.org/2000/svg" xmlns:xlink="http://www.w3.org/1999/xlink" xmlns:bx="https://boxy-svg.com">
  <defs id="defs12">
    <linearGradient id="linearGradient14496">
      <stop style="stop-color:#7b79b9;stop-opacity:1" offset="0" id="stop14492"/>
      <stop style="stop-color:#6966b2;stop-opacity:1" offset="1" id="stop14494"/>
    </linearGradient>
    <filter id="blur_shadow" x="-0.012" y="-0.012" width="1.024" height="1.024">
      <feGaussianBlur stdDeviation="4.12" id="feGaussianBlur2266"/>
    </filter>
    <filter style="color-interpolation-filters:sRGB" id="filter22475" x="-0.067983337" y="-0.053694597" width="1.1359667" height="1.1073892">
      <feGaussianBlur stdDeviation="13.160575" id="feGaussianBlur22477"/>
    </filter>
    <radialGradient id="radialGradient14523" cx="512" cy="512" r="412" gradientUnits="userSpaceOnUse" xlink:href="#linearGradient14496"/>
  </defs>
  <path d="m 924,365.412 c 0,-9.782 0,-18.35 -0.056,-28.133 -0.049,-8.241 -0.144,-16.48 -0.368,-24.716 -0.484,-17.954 -1.543,-36.061 -4.736,-53.813 -3.238,-18.01 -8.526,-34.77 -16.859,-51.133 a 171.963,171.963 0 0 0 -31.661,-43.559 172.06,172.06 0 0 0 -43.574,-31.64 c -16.381,-8.335 -33.159,-13.621 -51.188,-16.858 -17.755,-3.188 -35.867,-4.245 -53.82,-4.73 -8.243,-0.223 -16.485,-0.317 -24.73,-0.368 -9.788,-0.06 -19.576,-0.055 -29.364,-0.055 L 553.997,110 h -84.999 l -111.637,0.407 c -9.807,0 -19.614,-0.005 -29.421,0.055 -8.262,0.051 -16.52,0.145 -24.778,0.368 -17.995,0.485 -36.148,1.543 -53.945,4.735 -18.053,3.236 -34.857,8.52 -51.259,16.849 a 172.405,172.405 0 0 0 -43.667,31.644 171.994,171.994 0 0 0 -31.718,43.551 c -8.356,16.372 -13.654,33.143 -16.9,51.162 -3.196,17.746 -4.255,35.846 -4.742,53.792 -0.222,8.237 -0.318,16.476 -0.368,24.716 -0.06,9.784 -0.563,21.937 -0.563,31.72 v 195.999 l 0.508,112.429 c 0,9.796 -0.004,19.592 0.055,29.388 0.05,8.252 0.146,16.502 0.369,24.751 0.486,17.976 1.547,36.109 4.746,53.886 3.245,18.032 8.542,34.818 16.891,51.201 a 172.24,172.24 0 0 0 31.722,43.619 172.444,172.444 0 0 0 43.659,31.684 c 16.412,8.346 33.224,13.639 51.288,16.88 17.789,3.193 35.936,4.252 53.924,4.737 8.258,0.223 16.517,0.318 24.779,0.368 9.807,0.059 19.613,0.059 29.42,0.059 h 310.283 c 9.788,0 19.576,0 29.364,-0.059 8.245,-0.05 16.487,-0.145 24.73,-0.368 17.96,-0.486 36.078,-1.546 53.841,-4.741 18.018,-3.241 34.788,-8.532 51.159,-16.873 a 172.004,172.004 0 0 0 43.582,-31.687 172.23,172.23 0 0 0 31.659,-43.612 c 8.337,-16.391 13.625,-33.184 16.865,-51.229 3.19,-17.77 4.248,-35.896 4.733,-53.865 0.223,-8.25 0.318,-16.5 0.367,-24.751 C 924,697.019 924,687.223 924,677.427 Z" fill="rgba(0,0,0,0.3)" filter="url(#blur_shadow)" id="path14" style="opacity:0.35;mix-blend-mode:normal;fill:#1a1a1a;filter:url(#blur_shadow)" transform="matrix(1.0113796,0,0,1,-5.8263354,0)"/>
  <path d="M 924 355.412 C 924 345.63 924 337.062 923.944 327.279 C 923.895 319.038 923.8 310.799 923.576 302.563 C 923.092 284.609 922.033 266.502 918.84 248.75 C 915.602 230.74 910.314 213.98 901.981 197.617 C 893.78 181.525 883.096 166.825 870.32 154.058 C 857.546 141.29 842.841 130.612 826.746 122.418 C 810.365 114.083 793.587 108.797 775.558 105.56 C 757.803 102.372 739.691 101.315 721.738 100.83 C 713.495 100.607 705.253 100.513 697.008 100.462 C 687.22 100.402 677.432 100.407 667.644 100.407 L 553.997 100 L 468.998 100 L 357.361 100.407 C 347.554 100.407 337.747 100.402 327.94 100.462 C 319.678 100.513 311.42 100.607 303.162 100.83 C 285.167 101.315 267.014 102.373 249.217 105.565 C 231.164 108.801 214.36 114.085 197.958 122.414 C 181.833 130.606 167.097 141.285 154.291 154.058 C 141.496 166.819 130.792 181.516 122.573 197.609 C 114.217 213.981 108.919 230.752 105.673 248.771 C 102.477 266.517 101.418 284.617 100.931 302.563 C 100.709 310.8 100.613 319.039 100.563 327.279 C 100.503 337.063 100 349.216 100 358.999 L 100 554.998 L 100.508 667.427 C 100.508 677.223 100.504 687.019 100.563 696.815 C 100.613 705.067 100.709 713.317 100.932 721.566 C 101.418 739.542 102.479 757.675 105.678 775.452 C 108.923 793.484 114.22 810.27 122.569 826.653 C 130.787 842.768 141.492 857.488 154.291 870.272 C 167.092 883.058 181.825 893.75 197.95 901.956 C 214.362 910.302 231.174 915.595 249.238 918.836 C 267.027 922.029 285.174 923.088 303.162 923.573 C 311.42 923.796 319.679 923.891 327.941 923.941 C 337.748 924 347.554 924 357.361 924 L 667.644 924 C 677.432 924 687.22 924 697.008 923.941 C 705.253 923.891 713.495 923.796 721.738 923.573 C 739.698 923.087 757.816 922.027 775.579 918.832 C 793.597 915.591 810.367 910.3 826.738 901.959 C 842.84 893.752 857.548 883.058 870.32 870.272 C 883.096 857.486 893.78 842.769 901.979 826.66 C 910.316 810.269 915.604 793.476 918.844 775.431 C 922.034 757.661 923.092 739.535 923.577 721.566 C 923.8 713.316 923.895 705.066 923.944 696.815 C 924 687.019 924 677.223 924 667.427 L 924 355.412 Z" fill="#ffffff" id="path16" style="fill:url(#radialGradient14523);fill-opacity:1"/>
  <path style="opacity: 0.5; mix-blend-mode: normal; fill-opacity: 1; stroke-width: 15.6722; filter: url(#filter22475); fill: rgba(38, 37, 62, 0.89);" d="M 397.165 823.923 C 418.714 830.608 527.862 820.562 579.78 813.525 C 640.743 808.311 754.383 782.801 743.584 744.221 C 733.947 709.789 635.295 705.343 566.539 692.951 C 500.695 681.084 417.185 669.943 406.602 643.244 C 395.229 614.554 426.089 591.034 479.004 570.166 C 531.92 549.298 641.81 516.4 641.81 516.4 C 641.81 516.4 523.959 450.04 493.696 430.059 C 447.821 399.771 444.252 382.903 492.969 373.443 C 536.698 364.951 559.585 359.445 612.487 348.567 C 638.381 343.242 698.776 329.025 701.327 290.704 C 704.02 250.18 631.352 236.535 588.717 237.982 C 530.2 239.959 464.345 259.205 464.345 259.205 C 589.527 257.337 618.339 264.153 627.761 277.39 C 633.336 285.208 625.36 296.091 591.991 301.771 C 555.662 307.956 521.441 311.171 481.008 316.983 C 440.278 322.813 379.733 330.836 365.227 353.914 C 356.149 368.367 352.798 388.48 371.385 408.419 C 422.784 452.893 484.269 478.753 543.846 508.065 C 543.846 508.065 359.842 528.076 303.307 578.816 C 257.76 619.695 273.956 711.454 388.551 741.527 C 438.464 754.625 484.352 763.944 580.103 759.742 C 643.998 758.557 646.755 755.311 650.764 762.403 C 653.762 770.65 619.128 776.846 601.056 782.599 C 572.614 791.642 397.484 825.763 397.15 823.927 L 397.165 823.923 Z" id="path22455" bx:origin="0.474 0.504"/>
  <path style="stroke-width: 15.6722; filter: none; fill: rgb(240, 240, 240);" d="M 389.165 793.923 C 410.714 800.608 519.862 790.562 571.78 783.525 C 632.743 778.311 751.752 750.878 735.584 714.221 C 722.756 685.136 429.079 663.029 384.096 617.904 C 375.482 609.263 366.126 589.79 390.006 574.601 C 423.243 553.46 633.81 486.4 633.81 486.4 C 633.81 486.4 513.414 413.678 483.151 393.698 C 437.276 363.41 442.94 351.638 488.786 340.898 C 523.93 332.666 569.977 325.374 602.241 317.444 C 627.914 311.134 690.776 299.025 693.327 260.704 C 696.02 220.18 623.352 206.535 580.717 207.982 C 522.2 209.959 456.345 229.205 456.345 229.205 C 581.527 227.337 610.339 234.153 619.761 247.39 C 625.336 255.208 617.36 266.091 583.991 271.771 C 547.662 277.956 513.441 281.171 473.008 286.983 C 432.278 292.813 371.733 300.836 357.227 323.914 C 348.149 338.367 344.798 358.48 363.385 378.419 C 414.784 422.893 476.269 448.753 535.846 478.065 C 535.846 478.065 351.842 498.076 295.307 548.816 C 249.76 589.695 265.956 681.454 380.551 711.527 C 430.464 724.625 476.352 733.944 572.103 729.742 C 635.998 728.557 638.755 725.311 642.764 732.403 C 645.762 740.65 611.128 746.846 593.056 752.599 C 564.614 761.642 389.484 795.763 389.15 793.927 L 389.165 793.923 Z" id="path6" bx:origin="0.474 0.504"/>
</svg>